<svg xmlns="http://www.w3.org/2000/svg" width="38" height="38" fill="none"><path fill="#1B3E67" fill-rule="evenodd" d="m22.757 1.757 12.514 12.515a6 6 0 0 1 0 8.485L22.757 35.271a6 6 0 0 1-8.485 0L1.757 22.757a6 6 0 0 1 0-8.485L14.272 1.757a6 6 0 0 1 8.485 0Z" clip-rule="evenodd"/><path fill="#EDEEEF" d="M17.917 7.473a7.943 7.943 0 0 0-6.79 7.972v12.113a.636.636 0 0 0 1.082.454l5.291-5.198c2.042.372 4.332.078 6.811-2.422a7.53 7.53 0 0 0 2.34-5.678 7.773 7.773 0 0 0-8.734-7.24Zm.978 12.858a5.15 5.15 0 1 1 0-10.3 5.15 5.15 0 0 1 0 10.3Z"/></svg>